<mxfile host="app.diagrams.net" agent="Mozilla/5.0 (Macintosh; Intel Mac OS X 10_15_7) AppleWebKit/605.1.15 (KHTML, like Gecko) Version/18.5 Safari/605.1.15" version="28.0.4" pages="3">
  <diagram name="Blue Green" id="fbGeqM2Jq7wtn_gfQt6s">
    <mxGraphModel dx="1117" dy="619" grid="1" gridSize="10" guides="1" tooltips="1" connect="1" arrows="1" fold="1" page="1" pageScale="1" pageWidth="1100" pageHeight="850" math="0" shadow="0">
      <root>
        <mxCell id="0" />
        <mxCell id="1" parent="0" />
        <mxCell id="I9eTBgIfflXQ0Q4UAd2N-6" style="edgeStyle=orthogonalEdgeStyle;rounded=0;orthogonalLoop=1;jettySize=auto;html=1;" parent="1" source="I9eTBgIfflXQ0Q4UAd2N-1" target="I9eTBgIfflXQ0Q4UAd2N-3" edge="1">
          <mxGeometry relative="1" as="geometry" />
        </mxCell>
        <mxCell id="I9eTBgIfflXQ0Q4UAd2N-1" value="UC Prod" style="rounded=0;whiteSpace=wrap;html=1;" parent="1" vertex="1">
          <mxGeometry x="130" y="80" width="120" height="60" as="geometry" />
        </mxCell>
        <mxCell id="I9eTBgIfflXQ0Q4UAd2N-7" style="edgeStyle=orthogonalEdgeStyle;rounded=0;orthogonalLoop=1;jettySize=auto;html=1;" parent="1" source="I9eTBgIfflXQ0Q4UAd2N-2" target="I9eTBgIfflXQ0Q4UAd2N-4" edge="1">
          <mxGeometry relative="1" as="geometry" />
        </mxCell>
        <mxCell id="I9eTBgIfflXQ0Q4UAd2N-2" value="UC Dev" style="rounded=0;whiteSpace=wrap;html=1;" parent="1" vertex="1">
          <mxGeometry x="460" y="80" width="120" height="60" as="geometry" />
        </mxCell>
        <mxCell id="I9eTBgIfflXQ0Q4UAd2N-3" value="Prod" style="rounded=0;whiteSpace=wrap;html=1;fillColor=#d5e8d4;strokeColor=#82b366;" parent="1" vertex="1">
          <mxGeometry x="130" y="210" width="120" height="60" as="geometry" />
        </mxCell>
        <mxCell id="I9eTBgIfflXQ0Q4UAd2N-4" value="Dev" style="rounded=0;whiteSpace=wrap;html=1;fillColor=#dae8fc;strokeColor=#6c8ebf;" parent="1" vertex="1">
          <mxGeometry x="460" y="210" width="120" height="60" as="geometry" />
        </mxCell>
        <mxCell id="I9eTBgIfflXQ0Q4UAd2N-8" style="rounded=0;orthogonalLoop=1;jettySize=auto;html=1;entryX=0;entryY=0;entryDx=0;entryDy=0;exitX=1;exitY=1;exitDx=0;exitDy=0;" parent="1" source="I9eTBgIfflXQ0Q4UAd2N-9" target="I9eTBgIfflXQ0Q4UAd2N-13" edge="1">
          <mxGeometry relative="1" as="geometry" />
        </mxCell>
        <mxCell id="I9eTBgIfflXQ0Q4UAd2N-9" value="UC Prod" style="rounded=0;whiteSpace=wrap;html=1;" parent="1" vertex="1">
          <mxGeometry x="120" y="390" width="120" height="60" as="geometry" />
        </mxCell>
        <mxCell id="I9eTBgIfflXQ0Q4UAd2N-10" style="rounded=0;orthogonalLoop=1;jettySize=auto;html=1;entryX=0.5;entryY=0;entryDx=0;entryDy=0;" parent="1" source="I9eTBgIfflXQ0Q4UAd2N-11" target="I9eTBgIfflXQ0Q4UAd2N-14" edge="1">
          <mxGeometry relative="1" as="geometry">
            <mxPoint x="660" y="500" as="targetPoint" />
          </mxGeometry>
        </mxCell>
        <mxCell id="I9eTBgIfflXQ0Q4UAd2N-11" value="Dev" style="rounded=0;whiteSpace=wrap;html=1;fillColor=#f8cecc;strokeColor=#b85450;" parent="1" vertex="1">
          <mxGeometry x="510" y="380" width="120" height="60" as="geometry" />
        </mxCell>
        <mxCell id="I9eTBgIfflXQ0Q4UAd2N-12" value="Prod" style="rounded=0;whiteSpace=wrap;html=1;fillColor=#d5e8d4;strokeColor=#82b366;" parent="1" vertex="1">
          <mxGeometry x="120" y="530" width="120" height="60" as="geometry" />
        </mxCell>
        <mxCell id="I9eTBgIfflXQ0Q4UAd2N-13" value="Dev" style="rounded=0;whiteSpace=wrap;html=1;fillColor=#dae8fc;strokeColor=#6c8ebf;" parent="1" vertex="1">
          <mxGeometry x="450" y="530" width="120" height="60" as="geometry" />
        </mxCell>
        <mxCell id="I9eTBgIfflXQ0Q4UAd2N-14" value="null" style="rounded=0;whiteSpace=wrap;html=1;fillColor=#f5f5f5;strokeColor=#666666;fontColor=#333333;" parent="1" vertex="1">
          <mxGeometry x="650" y="530" width="120" height="60" as="geometry" />
        </mxCell>
        <mxCell id="I9eTBgIfflXQ0Q4UAd2N-15" style="rounded=0;orthogonalLoop=1;jettySize=auto;html=1;entryX=0;entryY=0;entryDx=0;entryDy=0;" parent="1" source="I9eTBgIfflXQ0Q4UAd2N-16" target="I9eTBgIfflXQ0Q4UAd2N-20" edge="1">
          <mxGeometry relative="1" as="geometry" />
        </mxCell>
        <mxCell id="I9eTBgIfflXQ0Q4UAd2N-16" value="Prod" style="rounded=0;whiteSpace=wrap;html=1;" parent="1" vertex="1">
          <mxGeometry x="120" y="730" width="120" height="60" as="geometry" />
        </mxCell>
        <mxCell id="I9eTBgIfflXQ0Q4UAd2N-17" style="rounded=0;orthogonalLoop=1;jettySize=auto;html=1;entryX=1;entryY=0;entryDx=0;entryDy=0;" parent="1" source="I9eTBgIfflXQ0Q4UAd2N-18" target="I9eTBgIfflXQ0Q4UAd2N-19" edge="1">
          <mxGeometry relative="1" as="geometry">
            <mxPoint x="660" y="840" as="targetPoint" />
          </mxGeometry>
        </mxCell>
        <mxCell id="I9eTBgIfflXQ0Q4UAd2N-18" value="Dev" style="rounded=0;whiteSpace=wrap;html=1;fillColor=#f8cecc;strokeColor=#b85450;" parent="1" vertex="1">
          <mxGeometry x="450" y="730" width="120" height="60" as="geometry" />
        </mxCell>
        <mxCell id="I9eTBgIfflXQ0Q4UAd2N-19" value="Prod" style="rounded=0;whiteSpace=wrap;html=1;fillColor=#d5e8d4;strokeColor=#82b366;" parent="1" vertex="1">
          <mxGeometry x="120" y="870" width="120" height="60" as="geometry" />
        </mxCell>
        <mxCell id="I9eTBgIfflXQ0Q4UAd2N-20" value="Dev" style="rounded=0;whiteSpace=wrap;html=1;fillColor=#dae8fc;strokeColor=#6c8ebf;" parent="1" vertex="1">
          <mxGeometry x="450" y="870" width="120" height="60" as="geometry" />
        </mxCell>
        <mxCell id="I9eTBgIfflXQ0Q4UAd2N-21" value="null" style="rounded=0;whiteSpace=wrap;html=1;fillColor=#f5f5f5;strokeColor=#666666;fontColor=#333333;" parent="1" vertex="1">
          <mxGeometry x="650" y="870" width="120" height="60" as="geometry" />
        </mxCell>
        <mxCell id="I9eTBgIfflXQ0Q4UAd2N-23" style="rounded=0;orthogonalLoop=1;jettySize=auto;html=1;entryX=0;entryY=0;entryDx=0;entryDy=0;exitX=1;exitY=1;exitDx=0;exitDy=0;" parent="1" source="I9eTBgIfflXQ0Q4UAd2N-24" target="I9eTBgIfflXQ0Q4UAd2N-28" edge="1">
          <mxGeometry relative="1" as="geometry" />
        </mxCell>
        <mxCell id="I9eTBgIfflXQ0Q4UAd2N-24" value="Prod" style="rounded=0;whiteSpace=wrap;html=1;" parent="1" vertex="1">
          <mxGeometry x="1010" y="380" width="120" height="60" as="geometry" />
        </mxCell>
        <mxCell id="I9eTBgIfflXQ0Q4UAd2N-25" style="rounded=0;orthogonalLoop=1;jettySize=auto;html=1;entryX=0;entryY=0;entryDx=0;entryDy=0;" parent="1" source="I9eTBgIfflXQ0Q4UAd2N-26" target="I9eTBgIfflXQ0Q4UAd2N-30" edge="1">
          <mxGeometry relative="1" as="geometry">
            <mxPoint x="1550" y="490" as="targetPoint" />
          </mxGeometry>
        </mxCell>
        <mxCell id="I9eTBgIfflXQ0Q4UAd2N-26" value="Dev" style="rounded=0;whiteSpace=wrap;html=1;fillColor=#f8cecc;strokeColor=#b85450;" parent="1" vertex="1">
          <mxGeometry x="1340" y="380" width="120" height="60" as="geometry" />
        </mxCell>
        <mxCell id="I9eTBgIfflXQ0Q4UAd2N-27" value="Prod" style="rounded=0;whiteSpace=wrap;html=1;fillColor=#d5e8d4;strokeColor=#82b366;" parent="1" vertex="1">
          <mxGeometry x="1010" y="520" width="120" height="60" as="geometry" />
        </mxCell>
        <mxCell id="I9eTBgIfflXQ0Q4UAd2N-31" value="Clone" style="edgeStyle=orthogonalEdgeStyle;rounded=0;orthogonalLoop=1;jettySize=auto;html=1;" parent="1" source="I9eTBgIfflXQ0Q4UAd2N-28" target="I9eTBgIfflXQ0Q4UAd2N-30" edge="1">
          <mxGeometry relative="1" as="geometry">
            <Array as="points">
              <mxPoint x="1400" y="610" />
              <mxPoint x="1400" y="610" />
            </Array>
          </mxGeometry>
        </mxCell>
        <mxCell id="I9eTBgIfflXQ0Q4UAd2N-28" value="Dev" style="rounded=0;whiteSpace=wrap;html=1;fillColor=#d5e8d4;strokeColor=#82b366;" parent="1" vertex="1">
          <mxGeometry x="1340" y="520" width="120" height="60" as="geometry" />
        </mxCell>
        <mxCell id="I9eTBgIfflXQ0Q4UAd2N-29" value="null" style="rounded=0;whiteSpace=wrap;html=1;fillColor=#f5f5f5;strokeColor=#666666;fontColor=#333333;" parent="1" vertex="1">
          <mxGeometry x="1560" y="260" width="120" height="60" as="geometry" />
        </mxCell>
        <mxCell id="I9eTBgIfflXQ0Q4UAd2N-30" value="Dev" style="rounded=0;whiteSpace=wrap;html=1;fillColor=#dae8fc;strokeColor=#6c8ebf;" parent="1" vertex="1">
          <mxGeometry x="1580" y="630" width="120" height="60" as="geometry" />
        </mxCell>
        <mxCell id="I9eTBgIfflXQ0Q4UAd2N-32" value="WS&lt;div&gt;Notebooks, Apps, Workflow&lt;/div&gt;" style="rounded=1;whiteSpace=wrap;html=1;" parent="1" vertex="1">
          <mxGeometry x="460" y="10" width="120" height="60" as="geometry" />
        </mxCell>
        <mxCell id="I9eTBgIfflXQ0Q4UAd2N-33" value="WS&lt;div&gt;Notebooks, Apps, Workflow&lt;/div&gt;" style="rounded=1;whiteSpace=wrap;html=1;" parent="1" vertex="1">
          <mxGeometry x="130" y="10" width="120" height="60" as="geometry" />
        </mxCell>
      </root>
    </mxGraphModel>
  </diagram>
  <diagram id="g1ZiqKzkNFzP-D6NRv2o" name="Product">
    <mxGraphModel dx="2489" dy="974" grid="1" gridSize="10" guides="1" tooltips="1" connect="1" arrows="1" fold="1" page="1" pageScale="1" pageWidth="1100" pageHeight="850" math="0" shadow="0">
      <root>
        <mxCell id="0" />
        <mxCell id="1" parent="0" />
        <mxCell id="Qg3hUVjr1YBHY3itmNmm-4" value="Product" style="rounded=0;whiteSpace=wrap;html=1;align=center;verticalAlign=top;fillColor=#f5f5f5;fontColor=#333333;strokeColor=#666666;" vertex="1" parent="1">
          <mxGeometry x="110" y="200" width="140" height="230" as="geometry" />
        </mxCell>
        <mxCell id="Qg3hUVjr1YBHY3itmNmm-1" value="Prod Workspace&lt;div&gt;(505)&lt;/div&gt;" style="rounded=1;whiteSpace=wrap;html=1;fillColor=#dae8fc;strokeColor=#6c8ebf;" vertex="1" parent="1">
          <mxGeometry x="60" y="60" width="210" height="70" as="geometry" />
        </mxCell>
        <mxCell id="Qg3hUVjr1YBHY3itmNmm-2" value="Dev Workspace&lt;div&gt;(808)&lt;/div&gt;" style="rounded=0;whiteSpace=wrap;html=1;fillColor=#f5f5f5;fontColor=#333333;strokeColor=#666666;" vertex="1" parent="1">
          <mxGeometry x="520" y="120" width="120" height="60" as="geometry" />
        </mxCell>
        <mxCell id="Qg3hUVjr1YBHY3itmNmm-3" value="Notebook" style="rounded=0;whiteSpace=wrap;html=1;" vertex="1" parent="1">
          <mxGeometry x="120" y="280" width="120" height="30" as="geometry" />
        </mxCell>
        <mxCell id="Qg3hUVjr1YBHY3itmNmm-5" value="Query" style="rounded=0;whiteSpace=wrap;html=1;" vertex="1" parent="1">
          <mxGeometry x="120" y="320" width="120" height="30" as="geometry" />
        </mxCell>
        <mxCell id="Qg3hUVjr1YBHY3itmNmm-6" value="Dashboard" style="rounded=0;whiteSpace=wrap;html=1;" vertex="1" parent="1">
          <mxGeometry x="120" y="240" width="120" height="30" as="geometry" />
        </mxCell>
        <mxCell id="Qg3hUVjr1YBHY3itmNmm-7" value="ETL Pipeline" style="rounded=0;whiteSpace=wrap;html=1;" vertex="1" parent="1">
          <mxGeometry x="120" y="360" width="120" height="30" as="geometry" />
        </mxCell>
        <mxCell id="Qg3hUVjr1YBHY3itmNmm-10" value="" style="edgeStyle=orthogonalEdgeStyle;rounded=0;orthogonalLoop=1;jettySize=auto;html=1;fillColor=#f8cecc;strokeColor=#b85450;" edge="1" parent="1" source="Qg3hUVjr1YBHY3itmNmm-8" target="Qg3hUVjr1YBHY3itmNmm-9">
          <mxGeometry relative="1" as="geometry" />
        </mxCell>
        <mxCell id="Qg3hUVjr1YBHY3itmNmm-8" value="Product Definition YAML" style="rounded=0;whiteSpace=wrap;html=1;fillColor=#f8cecc;strokeColor=#b85450;" vertex="1" parent="1">
          <mxGeometry x="-90" y="500" width="120" height="60" as="geometry" />
        </mxCell>
        <mxCell id="Qg3hUVjr1YBHY3itmNmm-12" value="" style="edgeStyle=orthogonalEdgeStyle;rounded=0;orthogonalLoop=1;jettySize=auto;html=1;" edge="1" parent="1" source="Qg3hUVjr1YBHY3itmNmm-9" target="Qg3hUVjr1YBHY3itmNmm-11">
          <mxGeometry relative="1" as="geometry" />
        </mxCell>
        <mxCell id="Qg3hUVjr1YBHY3itmNmm-9" value="Packaging mechanisms" style="rounded=0;whiteSpace=wrap;html=1;fillColor=#f8cecc;strokeColor=#b85450;" vertex="1" parent="1">
          <mxGeometry x="110" y="500" width="120" height="60" as="geometry" />
        </mxCell>
        <mxCell id="Qg3hUVjr1YBHY3itmNmm-14" value="" style="edgeStyle=orthogonalEdgeStyle;rounded=0;orthogonalLoop=1;jettySize=auto;html=1;" edge="1" parent="1" source="Qg3hUVjr1YBHY3itmNmm-11" target="Qg3hUVjr1YBHY3itmNmm-13">
          <mxGeometry relative="1" as="geometry" />
        </mxCell>
        <mxCell id="Qg3hUVjr1YBHY3itmNmm-11" value="Assest Bundle" style="rounded=0;whiteSpace=wrap;html=1;fillColor=#f8cecc;strokeColor=#b85450;" vertex="1" parent="1">
          <mxGeometry x="310" y="500" width="120" height="60" as="geometry" />
        </mxCell>
        <mxCell id="Qg3hUVjr1YBHY3itmNmm-16" value="" style="edgeStyle=orthogonalEdgeStyle;rounded=0;orthogonalLoop=1;jettySize=auto;html=1;" edge="1" parent="1" source="Qg3hUVjr1YBHY3itmNmm-13" target="Qg3hUVjr1YBHY3itmNmm-15">
          <mxGeometry relative="1" as="geometry" />
        </mxCell>
        <mxCell id="Qg3hUVjr1YBHY3itmNmm-13" value="Write Asset Bundle" style="rounded=0;whiteSpace=wrap;html=1;fillColor=#f8cecc;strokeColor=#b85450;" vertex="1" parent="1">
          <mxGeometry x="510" y="500" width="120" height="60" as="geometry" />
        </mxCell>
        <mxCell id="Qg3hUVjr1YBHY3itmNmm-18" value="" style="edgeStyle=orthogonalEdgeStyle;rounded=0;orthogonalLoop=1;jettySize=auto;html=1;" edge="1" parent="1" source="Qg3hUVjr1YBHY3itmNmm-15" target="Qg3hUVjr1YBHY3itmNmm-17">
          <mxGeometry relative="1" as="geometry" />
        </mxCell>
        <mxCell id="Qg3hUVjr1YBHY3itmNmm-15" value="Pipeline" style="rounded=0;whiteSpace=wrap;html=1;fillColor=#f5f5f5;fontColor=#333333;strokeColor=#666666;" vertex="1" parent="1">
          <mxGeometry x="710" y="500" width="120" height="60" as="geometry" />
        </mxCell>
        <mxCell id="Qg3hUVjr1YBHY3itmNmm-17" value="To env" style="rounded=0;whiteSpace=wrap;html=1;fillColor=#f5f5f5;fontColor=#333333;strokeColor=#666666;" vertex="1" parent="1">
          <mxGeometry x="910" y="500" width="120" height="60" as="geometry" />
        </mxCell>
      </root>
    </mxGraphModel>
  </diagram>
  <diagram id="z3ZGiY-lyNpLVyh8R6yd" name="Pipeline Triggers">
    <mxGraphModel dx="1350" dy="870" grid="1" gridSize="10" guides="1" tooltips="1" connect="1" arrows="1" fold="1" page="1" pageScale="1" pageWidth="1100" pageHeight="850" math="0" shadow="0">
      <root>
        <mxCell id="0" />
        <mxCell id="1" parent="0" />
        <mxCell id="ryktbwSQHaHynhFoO9YW-5" value="" style="rounded=0;orthogonalLoop=1;jettySize=auto;html=1;" parent="1" source="P2DB0SZnY6aYD9TAovK0-10" target="ryktbwSQHaHynhFoO9YW-4" edge="1">
          <mxGeometry relative="1" as="geometry" />
        </mxCell>
        <mxCell id="ryktbwSQHaHynhFoO9YW-7" value="" style="rounded=0;orthogonalLoop=1;jettySize=auto;html=1;" parent="1" source="ryktbwSQHaHynhFoO9YW-3" target="ryktbwSQHaHynhFoO9YW-6" edge="1">
          <mxGeometry relative="1" as="geometry" />
        </mxCell>
        <mxCell id="ryktbwSQHaHynhFoO9YW-3" value="" style="ellipse;whiteSpace=wrap;html=1;aspect=fixed;fillColor=#f5f5f5;fontColor=#333333;strokeColor=#666666;" parent="1" vertex="1">
          <mxGeometry x="137" y="60" width="80" height="80" as="geometry" />
        </mxCell>
        <mxCell id="ryktbwSQHaHynhFoO9YW-4" value="Merge" style="ellipse;whiteSpace=wrap;html=1;aspect=fixed;fillColor=#f5f5f5;fontColor=#333333;strokeColor=#666666;" parent="1" vertex="1">
          <mxGeometry x="707" y="60" width="80" height="80" as="geometry" />
        </mxCell>
        <mxCell id="ryktbwSQHaHynhFoO9YW-9" value="" style="edgeStyle=orthogonalEdgeStyle;rounded=0;orthogonalLoop=1;jettySize=auto;html=1;" parent="1" source="ryktbwSQHaHynhFoO9YW-6" target="ryktbwSQHaHynhFoO9YW-8" edge="1">
          <mxGeometry relative="1" as="geometry" />
        </mxCell>
        <mxCell id="ryktbwSQHaHynhFoO9YW-6" value="New Branch&lt;div&gt;Commit&lt;/div&gt;" style="ellipse;whiteSpace=wrap;html=1;aspect=fixed;fillColor=#e1d5e7;strokeColor=#9673a6;" parent="1" vertex="1">
          <mxGeometry x="257" y="220" width="80" height="80" as="geometry" />
        </mxCell>
        <mxCell id="ryktbwSQHaHynhFoO9YW-11" value="" style="edgeStyle=orthogonalEdgeStyle;rounded=0;orthogonalLoop=1;jettySize=auto;html=1;" parent="1" source="ryktbwSQHaHynhFoO9YW-8" target="ryktbwSQHaHynhFoO9YW-10" edge="1">
          <mxGeometry relative="1" as="geometry" />
        </mxCell>
        <mxCell id="ryktbwSQHaHynhFoO9YW-8" value="Commit" style="ellipse;whiteSpace=wrap;html=1;aspect=fixed;fillColor=#e1d5e7;strokeColor=#9673a6;" parent="1" vertex="1">
          <mxGeometry x="407" y="220" width="80" height="80" as="geometry" />
        </mxCell>
        <mxCell id="ryktbwSQHaHynhFoO9YW-15" style="rounded=0;orthogonalLoop=1;jettySize=auto;html=1;exitX=1;exitY=0;exitDx=0;exitDy=0;entryX=0;entryY=1;entryDx=0;entryDy=0;" parent="1" source="ryktbwSQHaHynhFoO9YW-10" target="ryktbwSQHaHynhFoO9YW-13" edge="1">
          <mxGeometry relative="1" as="geometry" />
        </mxCell>
        <mxCell id="ryktbwSQHaHynhFoO9YW-10" value="" style="ellipse;whiteSpace=wrap;html=1;aspect=fixed;fillColor=#e1d5e7;strokeColor=#9673a6;" parent="1" vertex="1">
          <mxGeometry x="547" y="220" width="80" height="80" as="geometry" />
        </mxCell>
        <mxCell id="ryktbwSQHaHynhFoO9YW-14" style="rounded=0;orthogonalLoop=1;jettySize=auto;html=1;exitX=1;exitY=0;exitDx=0;exitDy=0;entryX=0;entryY=1;entryDx=0;entryDy=0;" parent="1" source="ryktbwSQHaHynhFoO9YW-13" target="ryktbwSQHaHynhFoO9YW-4" edge="1">
          <mxGeometry relative="1" as="geometry" />
        </mxCell>
        <mxCell id="ryktbwSQHaHynhFoO9YW-13" value="PR" style="rhombus;whiteSpace=wrap;html=1;" parent="1" vertex="1">
          <mxGeometry x="627" y="140" width="80" height="80" as="geometry" />
        </mxCell>
        <mxCell id="ryktbwSQHaHynhFoO9YW-21" value="feature/*, or feat/*" style="text;html=1;align=center;verticalAlign=middle;resizable=0;points=[];autosize=1;strokeColor=none;fillColor=none;fontStyle=1;fontSize=15;" parent="1" vertex="1">
          <mxGeometry y="245" width="140" height="30" as="geometry" />
        </mxCell>
        <mxCell id="ryktbwSQHaHynhFoO9YW-22" value="Master/Main" style="text;html=1;align=center;verticalAlign=middle;resizable=0;points=[];autosize=1;strokeColor=none;fillColor=none;fontStyle=1;fontSize=15;" parent="1" vertex="1">
          <mxGeometry x="10" y="80" width="110" height="30" as="geometry" />
        </mxCell>
        <mxCell id="P2DB0SZnY6aYD9TAovK0-11" value="" style="rounded=0;orthogonalLoop=1;jettySize=auto;html=1;" edge="1" parent="1" source="ryktbwSQHaHynhFoO9YW-3" target="P2DB0SZnY6aYD9TAovK0-10">
          <mxGeometry relative="1" as="geometry">
            <mxPoint x="217" y="100" as="sourcePoint" />
            <mxPoint x="707" y="100" as="targetPoint" />
          </mxGeometry>
        </mxCell>
        <mxCell id="P2DB0SZnY6aYD9TAovK0-12" style="rounded=0;orthogonalLoop=1;jettySize=auto;html=1;" edge="1" parent="1" source="P2DB0SZnY6aYD9TAovK0-10" target="ryktbwSQHaHynhFoO9YW-8">
          <mxGeometry relative="1" as="geometry" />
        </mxCell>
        <mxCell id="P2DB0SZnY6aYD9TAovK0-10" value="" style="ellipse;whiteSpace=wrap;html=1;aspect=fixed;fillColor=#f5f5f5;fontColor=#333333;strokeColor=#666666;" vertex="1" parent="1">
          <mxGeometry x="370" y="60" width="80" height="80" as="geometry" />
        </mxCell>
        <mxCell id="P2DB0SZnY6aYD9TAovK0-1" value="Envs" parent="0" />
        <mxCell id="P2DB0SZnY6aYD9TAovK0-2" value="Prod" style="rounded=0;whiteSpace=wrap;html=1;fillColor=#d5e8d4;strokeColor=#82b366;" vertex="1" parent="P2DB0SZnY6aYD9TAovK0-1">
          <mxGeometry x="733" y="570" width="140" height="80" as="geometry" />
        </mxCell>
        <mxCell id="P2DB0SZnY6aYD9TAovK0-3" value="Dev" style="rounded=0;whiteSpace=wrap;html=1;fillColor=#f8cecc;strokeColor=#b85450;" vertex="1" parent="P2DB0SZnY6aYD9TAovK0-1">
          <mxGeometry x="390" y="640" width="150" height="80" as="geometry" />
        </mxCell>
        <mxCell id="P2DB0SZnY6aYD9TAovK0-4" style="rounded=0;orthogonalLoop=1;jettySize=auto;html=1;fillColor=#d5e8d4;strokeColor=#82b366;" edge="1" parent="P2DB0SZnY6aYD9TAovK0-1" target="P2DB0SZnY6aYD9TAovK0-2">
          <mxGeometry relative="1" as="geometry">
            <mxPoint x="755" y="140" as="sourcePoint" />
          </mxGeometry>
        </mxCell>
        <mxCell id="P2DB0SZnY6aYD9TAovK0-5" style="rounded=0;orthogonalLoop=1;jettySize=auto;html=1;fillColor=#dae8fc;strokeColor=#6c8ebf;entryX=0.25;entryY=0;entryDx=0;entryDy=0;" edge="1" parent="P2DB0SZnY6aYD9TAovK0-1" target="P2DB0SZnY6aYD9TAovK0-3">
          <mxGeometry relative="1" as="geometry">
            <mxPoint x="320" y="295" as="sourcePoint" />
          </mxGeometry>
        </mxCell>
        <mxCell id="P2DB0SZnY6aYD9TAovK0-6" style="rounded=0;orthogonalLoop=1;jettySize=auto;html=1;exitX=0.5;exitY=1;exitDx=0;exitDy=0;entryX=0.42;entryY=0;entryDx=0;entryDy=0;fillColor=#dae8fc;strokeColor=#6c8ebf;entryPerimeter=0;" edge="1" parent="P2DB0SZnY6aYD9TAovK0-1" target="P2DB0SZnY6aYD9TAovK0-3">
          <mxGeometry relative="1" as="geometry">
            <mxPoint x="450" y="300" as="sourcePoint" />
          </mxGeometry>
        </mxCell>
        <mxCell id="P2DB0SZnY6aYD9TAovK0-7" style="rounded=0;orthogonalLoop=1;jettySize=auto;html=1;exitX=0.5;exitY=1;exitDx=0;exitDy=0;entryX=0.75;entryY=0;entryDx=0;entryDy=0;fillColor=#dae8fc;strokeColor=#6c8ebf;" edge="1" parent="P2DB0SZnY6aYD9TAovK0-1" target="P2DB0SZnY6aYD9TAovK0-3" source="ryktbwSQHaHynhFoO9YW-13">
          <mxGeometry relative="1" as="geometry">
            <mxPoint x="690" y="200" as="sourcePoint" />
          </mxGeometry>
        </mxCell>
        <mxCell id="P2DB0SZnY6aYD9TAovK0-8" style="rounded=0;orthogonalLoop=1;jettySize=auto;html=1;fillColor=#dae8fc;strokeColor=#6c8ebf;" edge="1" parent="P2DB0SZnY6aYD9TAovK0-1" target="P2DB0SZnY6aYD9TAovK0-3">
          <mxGeometry relative="1" as="geometry">
            <Array as="points" />
            <mxPoint x="570" y="295" as="sourcePoint" />
          </mxGeometry>
        </mxCell>
        <mxCell id="P2DB0SZnY6aYD9TAovK0-13" value="Unit Tests" style="rounded=0;whiteSpace=wrap;html=1;" vertex="1" parent="P2DB0SZnY6aYD9TAovK0-1">
          <mxGeometry x="370" y="570" width="190" height="40" as="geometry" />
        </mxCell>
        <mxCell id="P2DB0SZnY6aYD9TAovK0-15" value="Unit Test Bundle" style="rounded=0;whiteSpace=wrap;html=1;" vertex="1" parent="P2DB0SZnY6aYD9TAovK0-1">
          <mxGeometry x="400" y="700" width="130" height="40" as="geometry" />
        </mxCell>
        <mxCell id="P2DB0SZnY6aYD9TAovK0-19" style="edgeStyle=orthogonalEdgeStyle;rounded=0;orthogonalLoop=1;jettySize=auto;html=1;entryX=0;entryY=0.5;entryDx=0;entryDy=0;exitX=0.5;exitY=1;exitDx=0;exitDy=0;fillColor=#fff2cc;strokeColor=#d6b656;" edge="1" parent="P2DB0SZnY6aYD9TAovK0-1" source="P2DB0SZnY6aYD9TAovK0-16" target="P2DB0SZnY6aYD9TAovK0-3">
          <mxGeometry relative="1" as="geometry" />
        </mxCell>
        <mxCell id="P2DB0SZnY6aYD9TAovK0-16" value="New Branch&lt;div&gt;Commit&lt;/div&gt;" style="ellipse;whiteSpace=wrap;html=1;aspect=fixed;fillColor=#fff2cc;strokeColor=#d6b656;" vertex="1" parent="P2DB0SZnY6aYD9TAovK0-1">
          <mxGeometry x="262" y="345" width="80" height="80" as="geometry" />
        </mxCell>
        <mxCell id="P2DB0SZnY6aYD9TAovK0-17" value="Random Branch" style="text;html=1;align=center;verticalAlign=middle;resizable=0;points=[];autosize=1;strokeColor=none;fillColor=none;fontStyle=1;fontSize=15;" vertex="1" parent="P2DB0SZnY6aYD9TAovK0-1">
          <mxGeometry x="5" y="370" width="130" height="30" as="geometry" />
        </mxCell>
        <mxCell id="P2DB0SZnY6aYD9TAovK0-18" value="&lt;div&gt;&lt;font style=&quot;font-size: 19px;&quot;&gt;DRY&lt;/font&gt;&lt;/div&gt;&lt;div&gt;&lt;font style=&quot;font-size: 19px;&quot;&gt;KISS&lt;/font&gt;&lt;/div&gt;&lt;font style=&quot;font-size: 19px;&quot;&gt;&lt;b&gt;YAGNI&lt;/b&gt;&lt;/font&gt;" style="text;html=1;align=center;verticalAlign=middle;resizable=0;points=[];autosize=1;strokeColor=none;fillColor=none;" vertex="1" parent="P2DB0SZnY6aYD9TAovK0-1">
          <mxGeometry x="890" y="10" width="80" height="80" as="geometry" />
        </mxCell>
        <mxCell id="P2DB0SZnY6aYD9TAovK0-9" value="Pipeline" style="rounded=0;whiteSpace=wrap;html=1;" vertex="1" parent="P2DB0SZnY6aYD9TAovK0-1">
          <mxGeometry x="270" y="470" width="620" height="40" as="geometry" />
        </mxCell>
      </root>
    </mxGraphModel>
  </diagram>
</mxfile>
